<?xml version="1.0" standalone="no"?>
<!DOCTYPE svg PUBLIC "-//W3C//DTD SVG 20010904//EN"
 "http://www.w3.org/TR/2001/REC-SVG-20010904/DTD/svg10.dtd">
<svg version="1.0" xmlns="http://www.w3.org/2000/svg"
 width="462.000000pt" height="462.000000pt" viewBox="0 0 462.000000 462.000000"
 preserveAspectRatio="xMidYMid meet">
<metadata>
Created by potrace 1.14, written by Peter Selinger 2001-2017
</metadata>
<g transform="translate(0.000000,462.000000) scale(0.100000,-0.100000)"
fill="#000000" stroke="none">
<path d="M2103 4590 c-36 -15 -47 -46 -26 -74 10 -14 28 -26 41 -29 21 -4 21
-3 7 13 -28 31 -14 60 30 60 39 0 68 -77 74 -197 2 -42 16 -24 45 57 32 90 58
130 86 130 24 0 34 -17 32 -52 -2 -21 1 -26 13 -22 42 17 26 104 -22 118 -26
7 -38 4 -75 -22 l-45 -31 -35 25 c-39 28 -92 38 -125 24z"/>
<path d="M1730 4569 c-53 -24 -77 -44 -97 -82 -13 -25 -13 -31 2 -53 17 -26
49 -32 62 -11 4 6 16 35 25 62 10 28 25 55 34 60 9 6 26 18 38 27 20 17 20 17
1 17 -11 1 -40 -9 -65 -20z"/>
<path d="M2990 4350 c0 -6 6 -10 13 -10 23 0 44 -32 61 -92 25 -87 63 -111
106 -68 25 25 25 45 0 80 -38 53 -180 124 -180 90z"/>
<path d="M2197 4286 c-39 -14 -67 -33 -67 -46 0 -4 9 -18 21 -31 18 -21 29
-24 90 -24 57 0 72 4 91 22 19 20 20 25 8 47 -21 41 -81 54 -143 32z"/>
<path d="M2225 4099 c-13 -40 -35 -70 -91 -127 l-73 -74 -78 6 c-111 10 -172
15 -223 21 -25 2 -76 7 -115 10 -38 4 -83 8 -100 10 -62 7 -304 30 -435 41
-84 7 -106 15 -114 42 -4 10 -12 19 -19 20 -129 15 -182 4 -211 -41 -13 -19
-14 -30 -6 -51 8 -23 15 -27 42 -24 26 2 36 10 47 35 12 27 57 61 67 50 3 -3
26 -79 58 -197 17 -61 107 -397 111 -413 2 -10 7 -27 10 -37 3 -10 8 -27 10
-37 2 -10 29 -112 60 -228 32 -115 71 -259 87 -320 16 -60 31 -117 33 -125 2
-8 16 -58 30 -110 14 -52 28 -102 30 -110 44 -153 51 -192 49 -306 -2 -113 -6
-169 -19 -294 -3 -30 -7 -77 -9 -105 -2 -27 -12 -81 -21 -120 -9 -38 -18 -81
-20 -95 -3 -14 -7 -36 -10 -50 -3 -14 -8 -41 -11 -60 -4 -19 -13 -47 -20 -61
-7 -15 -16 -41 -19 -59 -3 -18 -10 -40 -15 -50 -5 -9 -11 -28 -14 -41 -3 -13
-7 -34 -10 -47 -4 -12 -8 -30 -10 -40 -27 -108 -110 -310 -146 -353 -21 -25
-25 -26 -93 -21 -148 12 -491 3 -517 -13 -4 -2 -22 -7 -41 -10 -91 -16 -209
-85 -223 -130 -13 -45 3 -125 26 -125 4 0 8 -5 8 -11 0 -28 117 -109 240 -167
74 -35 214 -88 260 -97 13 -3 49 -12 120 -29 42 -11 179 -38 205 -41 17 -2 57
-6 90 -10 33 -4 74 -9 90 -11 43 -5 353 -5 399 1 62 7 146 25 201 42 320 102
178 336 -296 489 -46 15 -88 28 -94 29 -36 6 -76 19 -82 27 -11 19 -1 339 13
438 9 58 19 152 29 270 5 61 15 124 24 157 5 17 7 33 5 36 -3 2 0 17 6 32 6
15 12 49 14 74 2 25 7 57 10 71 3 14 8 36 11 50 52 262 99 410 202 630 61 128
85 184 87 195 1 6 10 24 19 42 9 18 17 39 17 48 0 8 5 15 10 15 6 0 10 6 10
14 0 12 21 62 83 196 11 25 21 47 21 50 1 3 15 37 32 75 18 39 49 108 69 155
55 126 60 137 104 233 23 48 41 90 41 94 0 4 15 39 34 77 19 39 40 84 45 99
19 48 28 38 94 -103 20 -41 48 -102 62 -135 15 -33 49 -105 75 -160 27 -55 87
-185 135 -290 47 -104 91 -198 96 -209 6 -10 48 -101 94 -202 47 -101 89 -191
94 -201 10 -18 59 -123 113 -243 78 -172 148 -405 173 -580 3 -19 17 -84 31
-145 15 -60 28 -126 29 -145 2 -19 6 -60 10 -90 4 -30 8 -65 8 -77 1 -13 3
-23 7 -23 3 0 6 -15 7 -33 4 -59 12 -117 18 -127 3 -6 2 -10 -4 -10 -9 0 -15
-130 -11 -249 1 -42 -13 -59 -56 -67 -19 -3 -37 -10 -40 -15 -3 -5 -13 -9 -24
-9 -10 0 -51 -11 -92 -25 -40 -14 -80 -28 -88 -29 -49 -12 -183 -77 -242 -118
-14 -10 -29 -18 -32 -18 -13 0 -90 -87 -113 -128 -33 -57 0 -137 75 -180 29
-16 121 -53 147 -58 131 -27 218 -35 395 -35 134 0 196 4 260 16 14 2 48 7 75
10 47 5 63 7 125 20 14 2 36 6 50 9 161 27 413 123 548 210 73 47 105 80 128
135 20 48 17 77 -12 127 -42 72 -138 113 -299 129 -38 4 -74 10 -80 13 -5 4
-104 7 -220 7 l-209 0 -16 45 c-9 25 -24 61 -33 80 -39 86 -108 276 -111 309
-2 20 -12 63 -21 96 -10 33 -16 60 -15 60 2 0 -2 10 -9 23 -15 28 -23 60 -22
87 0 11 -5 38 -11 60 -6 22 -12 47 -14 55 -7 37 -38 145 -43 150 -3 3 -7 14
-8 25 -3 32 -14 87 -25 130 -14 55 -18 116 -7 109 5 -3 7 -9 4 -14 -8 -13 18
-28 37 -21 27 9 186 191 212 241 13 25 33 79 45 120 30 102 46 128 104 175 44
35 120 118 167 184 28 39 38 11 41 -114 4 -172 20 -235 77 -320 54 -80 132
-188 207 -290 77 -103 89 -132 98 -242 2 -28 11 -29 37 -3 17 17 19 29 14 97
-8 131 -11 143 -47 158 -18 7 -40 22 -49 32 -21 24 -174 338 -186 383 -16 62
3 272 28 305 18 23 20 84 6 153 -20 91 -20 167 -2 257 23 109 29 172 28 281
-1 87 -6 136 -26 239 -7 37 19 82 53 90 17 3 33 11 36 16 4 5 13 9 21 9 26 0
93 53 109 87 23 47 18 78 -16 117 -46 53 -169 94 -169 57 0 -6 6 -8 14 -5 8 3
17 1 20 -5 8 -13 -29 -51 -49 -51 -8 0 -15 -6 -15 -14 0 -18 -35 -30 -77 -27
-31 2 -33 0 -33 -28 0 -16 -5 -33 -10 -36 -6 -4 -8 -10 -5 -15 3 -4 -2 -10
-10 -14 -15 -6 -21 -46 -7 -46 5 0 16 -6 26 -13 17 -12 17 -16 2 -51 -14 -34
-17 -36 -38 -25 -13 7 -43 33 -68 58 -25 25 -84 80 -130 121 -114 100 -140
129 -140 151 0 10 7 55 16 99 10 47 13 85 8 90 -12 12 -122 29 -161 24 -46 -5
-113 -34 -113 -49 0 -16 -41 -30 -135 -45 -38 -6 -83 -13 -100 -16 -16 -3 -38
-7 -47 -10 -26 -8 -48 -12 -323 -59 -11 -2 -31 -6 -45 -9 -14 -3 -38 -8 -55
-10 -16 -3 -41 -7 -55 -10 -14 -4 -54 -9 -90 -12 -62 -5 -66 -4 -99 26 -37 35
-91 133 -91 167 0 42 -19 33 -35 -18z m1319 -394 c4 -14 40 -64 82 -112 173
-201 190 -238 180 -377 -4 -50 -9 -125 -12 -166 -12 -167 -27 -211 -121 -340
-93 -129 -177 -272 -213 -360 -67 -169 -130 -295 -162 -323 -31 -27 -33 -27
-46 -10 -7 10 -16 29 -19 43 -9 39 -23 52 -39 39 -10 -8 -14 -8 -14 0 0 10 13
15 31 13 4 -1 7 49 7 111 0 124 3 151 26 250 9 37 25 118 36 180 11 61 22 123
25 137 3 14 10 45 15 70 5 25 11 54 14 65 2 11 14 67 26 125 12 58 23 114 26
125 43 206 57 274 61 294 2 13 11 51 19 85 17 70 21 90 30 131 12 61 15 67 29
55 7 -6 16 -22 19 -35z"/>
</g>
</svg>
